<?xml version="1.0" standalone="no"?>
<!DOCTYPE svg PUBLIC "-//W3C//DTD SVG 20010904//EN"
 "http://www.w3.org/TR/2001/REC-SVG-20010904/DTD/svg10.dtd">
<svg version="1.0" xmlns="http://www.w3.org/2000/svg"
 width="700.000000pt" height="700.000000pt" viewBox="0 0 700.000000 700.000000"
 preserveAspectRatio="xMidYMid meet">
<metadata>
Created by potrace 1.11, written by Peter Selinger 2001-2013
</metadata>
<g transform="translate(0.000000,700.000000) scale(0.100000,-0.100000)"
fill="#000000" stroke="none">
<path d="M0 3500 l0 -3500 3500 0 3500 0 0 3500 0 3500 -3500 0 -3500 0 0
-3500z m5247 1401 c131 -27 253 -70 377 -134 88 -45 244 -150 259 -174 5 -8
-248 -439 -274 -467 -4 -5 -32 13 -63 40 -105 94 -261 171 -405 200 -112 22
-304 15 -409 -15 -250 -72 -466 -260 -574 -498 -59 -132 -85 -306 -67 -453 23
-192 100 -356 234 -498 118 -125 252 -208 412 -254 66 -19 102 -23 233 -23
132 0 167 3 235 23 136 40 260 109 357 201 23 21 41 31 47 26 5 -6 70 -111
144 -235 157 -259 156 -225 18 -319 -164 -112 -357 -192 -551 -228 -140 -26
-392 -23 -527 5 -192 41 -392 127 -543 233 -104 72 -293 266 -361 369 -108
163 -180 333 -221 523 -31 146 -31 408 0 554 63 291 186 517 397 728 237 238
513 374 841 415 108 14 326 4 441 -19z m-3047 -35 c294 -68 507 -183 705 -381
211 -211 340 -458 391 -747 21 -121 21 -335 0 -456 -92 -523 -472 -949 -981
-1097 -163 -48 -260 -55 -752 -55 l-453 0 0 1381 0 1380 508 -4 c434 -3 518
-6 582 -21z"/>
<path d="M1660 3510 l0 -830 193 0 c157 0 207 4 275 20 304 73 532 298 618
610 28 100 26 310 -4 414 -67 234 -225 426 -437 531 -140 69 -223 85 -452 85
l-193 0 0 -830z"/>
</g>
</svg>
