<?xml version="1.0" encoding="UTF-8" standalone="no"?>
<!-- Created with Inkscape (http://www.inkscape.org/) -->

<svg
   xmlns:dc="http://purl.org/dc/elements/1.1/"
   xmlns:cc="http://creativecommons.org/ns#"
   xmlns:rdf="http://www.w3.org/1999/02/22-rdf-syntax-ns#"
   xmlns:svg="http://www.w3.org/2000/svg"
   xmlns="http://www.w3.org/2000/svg"
   xmlns:sodipodi="http://sodipodi.sourceforge.net/DTD/sodipodi-0.dtd"
   xmlns:inkscape="http://www.inkscape.org/namespaces/inkscape"
   width="100mm"
   height="100mm"
   viewBox="0 0 100 100"
   version="1.1"
   id="svg4551"
   inkscape:export-filename="C:\Users\Daniel\Desktop\bitmap4.png"
   inkscape:export-xdpi="199.89799"
   inkscape:export-ydpi="199.89799"
   inkscape:version="0.92.4 (5da689c313, 2019-01-14)"
   sodipodi:docname="portfolio-logo.svg">
  <defs
     id="defs4545" />
  <sodipodi:namedview
     id="base"
     pagecolor="#ffffff"
     bordercolor="#666666"
     borderopacity="1.0"
     inkscape:pageopacity="0.0"
     inkscape:pageshadow="2"
     inkscape:zoom="1.979899"
     inkscape:cx="-50.223715"
     inkscape:cy="287.72722"
     inkscape:document-units="mm"
     inkscape:current-layer="layer4"
     showgrid="false"
     inkscape:window-width="3000"
     inkscape:window-height="1875"
     inkscape:window-x="-13"
     inkscape:window-y="-13"
     inkscape:window-maximized="1" />
  <metadata
     id="metadata4548">
    <rdf:RDF>
      <cc:Work
         rdf:about="">
        <dc:format>image/svg+xml</dc:format>
        <dc:type
           rdf:resource="http://purl.org/dc/dcmitype/StillImage" />
        <dc:title></dc:title>
      </cc:Work>
    </rdf:RDF>
  </metadata>
  <g
     inkscape:groupmode="layer"
     id="layer4"
     inkscape:label="Background"
     sodipodi:insensitive="true">
    <rect
       style="opacity:1;fill:#ffffff;fill-opacity:1;stroke:none;stroke-width:0.26458332"
       id="rect5110"
       width="100"
       height="100"
       x="0"
       y="0" />
  </g>
  <g
     inkscape:label="Layer 1"
     inkscape:groupmode="layer"
     id="layer1"
     transform="translate(0,-197)"
     style="display:inline">
    <path
       style="opacity:1;fill:#000855;fill-opacity:1;stroke:none;stroke-width:0.99999994"
       d="M 0,0 V 377.95312 H 377.95312 V 0 Z m 268.29883,111.63281 c 9.23611,0 18.16037,1.59657 26.77148,4.79102 8.61111,3.125 16.38954,7.70833 23.33399,13.75 l -15.83399,26.04297 c -4.375,-4.72223 -9.54926,-8.33399 -15.52148,-10.83399 -5.97222,-2.56944 -12.22222,-3.85351 -18.75,-3.85351 -6.59722,0 -12.77713,1.25 -18.54102,3.75 -5.76389,2.5 -10.79796,5.90147 -15.10351,10.20703 -4.30556,4.23611 -7.70899,9.27213 -10.20899,15.10547 -2.5,5.76389 -3.75,11.90972 -3.75,18.4375 0,6.52777 1.25,12.67361 3.75,18.4375 2.5,5.69444 5.90343,10.69444 10.20899,15 4.30555,4.30555 9.33962,7.70703 15.10351,10.20703 5.76389,2.5 11.9438,3.75 18.54102,3.75 6.52778,0 12.77778,-1.25 18.75,-3.75 5.97222,-2.56945 11.14648,-6.21528 15.52148,-10.9375 l 15.83399,26.04297 c -6.94445,5.97222 -14.72288,10.55555 -23.33399,13.75 -8.61111,3.19444 -17.53537,4.79101 -26.77148,4.79101 -7.08333,0 -13.92231,-0.9375 -20.51953,-2.8125 -6.52778,-1.80555 -12.67361,-4.37565 -18.4375,-7.70898 -5.69445,-3.40278 -10.90278,-7.46528 -15.625,-12.1875 -4.72223,-4.72222 -8.78473,-9.93056 -12.1875,-15.625 -3.33334,-5.76389 -5.9375,-11.90972 -7.8125,-18.4375 -1.80556,-6.59722 -2.70899,-13.4362 -2.70899,-20.51953 0,-7.08334 0.90343,-13.92427 2.70899,-20.52149 1.875,-6.59722 4.47916,-12.74305 7.8125,-18.4375 3.40277,-5.76389 7.46527,-11.00629 12.1875,-15.72851 4.72222,-4.72223 9.93055,-8.75065 15.625,-12.08399 5.76389,-3.40278 11.90972,-6.00694 18.4375,-7.8125 6.59722,-1.875 13.4362,-2.8125 20.51953,-2.8125 z M 59.548828,113.7168 h 45.000002 c 6.875,0 13.47352,0.90147 19.79297,2.70703 6.38889,1.73611 12.36046,4.23611 17.91601,7.5 5.55556,3.26389 10.58963,7.18815 15.10352,11.77148 4.51389,4.51389 8.40408,9.54796 11.66797,15.10352 3.26389,5.48611 5.76389,11.42361 7.5,17.8125 1.80555,6.31944 2.70703,12.91797 2.70703,19.79297 0,6.875 -0.90148,13.50564 -2.70703,19.89453 -1.73611,6.31944 -4.23611,12.25694 -7.5,17.8125 -3.26389,5.48611 -7.15408,10.52213 -11.66797,15.10547 -4.51389,4.51389 -9.54796,8.40212 -15.10352,11.66601 -5.55555,3.26389 -11.52712,5.79796 -17.91601,7.60352 -6.31945,1.73611 -12.91797,2.60547 -19.79297,2.60547 H 59.548828 Z m 30.105469,29.89453 v 89.58398 h 14.894533 c 6.18055,0 11.97982,-1.14583 17.39648,-3.4375 5.48611,-2.36111 10.24371,-5.5562 14.27149,-9.58398 4.09722,-4.09722 7.29036,-8.85287 9.58203,-14.26953 2.36111,-5.48611 3.54297,-11.31945 3.54297,-17.5 0,-6.18056 -1.18186,-11.97982 -3.54297,-17.39649 -2.29167,-5.41666 -5.48481,-10.13824 -9.58203,-14.16601 -4.02778,-4.09723 -8.78538,-7.32639 -14.27149,-9.6875 -5.41666,-2.36111 -11.21593,-3.54297 -17.39648,-3.54297 z"
       transform="matrix(0.26458333,0,0,0.26458333,0,197)"
       id="rect5096"
       inkscape:connector-curvature="0" />
  </g>
</svg>
